<svg width="24" height="25" viewBox="0 0 24 25" fill="none" xmlns="http://www.w3.org/2000/svg">
<g id="cancel_24px">
<path id="icon/navigation/cancel_24px" fill-rule="evenodd" clip-rule="evenodd" d="M12 2.29492C6.47 2.29492 2 6.76492 2 12.2949C2 17.8249 6.47 22.2949 12 22.2949C17.53 22.2949 22 17.8249 22 12.2949C22 6.76492 17.53 2.29492 12 2.29492ZM12 20.2949C7.59 20.2949 4 16.7049 4 12.2949C4 7.88492 7.59 4.29492 12 4.29492C16.41 4.29492 20 7.88492 20 12.2949C20 16.7049 16.41 20.2949 12 20.2949ZM12 10.8849L15.59 7.29492L17 8.70492L13.41 12.2949L17 15.8849L15.59 17.2949L12 13.7049L8.41 17.2949L7 15.8849L10.59 12.2949L7 8.70492L8.41 7.29492L12 10.8849Z" fill="#DD3444"/>
</g>
</svg>
